<svg xmlns="http://www.w3.org/2000/svg" viewBox="0 0 1100 780" font-family="Arial, Helvetica, sans-serif"><title>Evidence and Authority Posture Map – SkyHarbor Global</title><desc>A proof posture visual for SkyHarbor Global showing loaded context, indexed evidence tiers, relationship confidence distribution, decision authority gates, finance authority gates, and explicit evidence gaps across the airline architecture graph.</desc><defs><marker id="arr" markerWidth="8" markerHeight="6" refX="8" refY="3" orient="auto"><polygon points="0 0, 8 3, 0 6" fill="#475569"/></marker><marker id="arr-amber" markerWidth="8" markerHeight="6" refX="8" refY="3" orient="auto"><polygon points="0 0, 8 3, 0 6" fill="#d97706"/></marker><marker id="arr-red" markerWidth="8" markerHeight="6" refX="8" refY="3" orient="auto"><polygon points="0 0, 8 3, 0 6" fill="#b91c1c"/></marker><marker id="arr-teal" markerWidth="8" markerHeight="6" refX="8" refY="3" orient="auto"><polygon points="0 0, 8 3, 0 6" fill="#0f766e"/></marker></defs><!-- Background --><rect width="1100" height="780" fill="#f8fafc" rx="4"/><!-- Title bar --><rect x="0" y="0" width="1100" height="44" fill="#0f172a" rx="4"/><text x="18" y="16" fill="#94a3b8" font-size="9" font-weight="600" letter-spacing="1">SKYHARBOR GLOBAL · PLANNING GRADE · SYNTHETIC DEMO</text><text x="18" y="32" fill="#f1f5f9" font-size="13" font-weight="700">Evidence and Authority Posture Map</text><text x="1082" y="28" fill="#64748b" font-size="9" text-anchor="end">home-claude-architecture-diagram-pack-v1</text><!-- ═══════════════════════════════════════════ PANEL A: Context Load Status ═══ --><rect x="12" y="54" width="330" height="168" fill="#1e293b" rx="4"/><text x="22" y="72" fill="#94a3b8" font-size="8" font-weight="700" letter-spacing="1">PANEL A — LOADED CONTEXT INDEX</text><rect x="22" y="80" width="310" height="22" fill="#0f172a" rx="2"/><text x="30" y="95" fill="#38bdf8" font-size="10" font-weight="700">Architecture Graph</text><text x="320" y="95" fill="#4ade80" font-size="10" font-weight="700" text-anchor="end">LOADED</text><rect x="22" y="106" width="310" height="22" fill="#0f172a" rx="2"/><text x="30" y="121" fill="#38bdf8" font-size="10" font-weight="700">Relationship Graph (derived CSV)</text><text x="320" y="121" fill="#4ade80" font-size="10" font-weight="700" text-anchor="end">LOADED</text><rect x="22" y="132" width="310" height="22" fill="#0f172a" rx="2"/><text x="30" y="147" fill="#38bdf8" font-size="10" font-weight="700">Home Evidence Contract</text><text x="320" y="147" fill="#4ade80" font-size="10" font-weight="700" text-anchor="end">LOADED</text><rect x="22" y="158" width="310" height="22" fill="#0f172a" rx="2"/><text x="30" y="173" fill="#38bdf8" font-size="10" font-weight="700">Architecture Advisory Result</text><text x="320" y="173" fill="#4ade80" font-size="10" font-weight="700" text-anchor="end">LOADED</text><rect x="22" y="184" width="310" height="30" fill="#0f172a" rx="2"/><text x="30" y="197" fill="#94a3b8" font-size="9">Nodes: 2,203 · Edges: 2,278 · Arch nodes: 444</text><text x="30" y="210" fill="#94a3b8" font-size="9">Value contracts: 119 · Boundary: synthetic_demo_airline</text><!-- ═══════════════════════════════════════════ PANEL B: Evidence Tier Map ═══ --><rect x="352" y="54" width="390" height="168" fill="#1e293b" rx="4"/><text x="362" y="72" fill="#94a3b8" font-size="8" font-weight="700" letter-spacing="1">PANEL B — EVIDENCE TIER CLASSIFICATION</text><!-- Tier 1 --><rect x="362" y="80" width="12" height="12" fill="#0f766e" rx="1"/><text x="380" y="91" fill="#f1f5f9" font-size="10" font-weight="700">TIER 1 — Explicit relationship row (high confidence)</text><text x="380" y="104" fill="#94a3b8" font-size="9">Source: 12_relationships.csv · derivation: explicit_relationship_row</text><text x="380" y="116" fill="#94a3b8" font-size="9">Example: flight planning platform → IT incident copilot (SHA-EVID-07220)</text><!-- Tier 2 --><rect x="362" y="122" width="12" height="12" fill="#1d4ed8" rx="1"/><text x="380" y="133" fill="#f1f5f9" font-size="10" font-weight="700">TIER 2 — App/function field derivation (medium confidence)</text><text x="380" y="146" fill="#94a3b8" font-size="9">Source: 04_applications_systems.csv · derivation: app_business_function_field</text><text x="380" y="158" fill="#94a3b8" font-size="9">Covers: PSS, DCS, Crew, Finance, Catering, Maintenance, Safety, Cargo</text><!-- Tier 3 --><rect x="362" y="164" width="12" height="12" fill="#d97706" rx="1"/><text x="380" y="175" fill="#f1f5f9" font-size="10" font-weight="700">TIER 3 — Directional / process-derived (medium, unconfirmed)</text><text x="380" y="188" fill="#94a3b8" font-size="9">Source: 05_data_assets_integrations.csv, 18_operational_process_evidence.csv</text><text x="380" y="200" fill="#94a3b8" font-size="9">Derivation: data_source/target_system_field, process_systems_field</text><!-- Tier 4 --><rect x="362" y="206" width="12" height="12" fill="#b91c1c" rx="1"/><text x="380" y="217" fill="#f1f5f9" font-size="10" font-weight="700">TIER 4 — Gap / owner unconfirmed (unknown)</text><!-- ═══════════════════════════════════════════ PANEL C: Confidence Distribution ═══ --><rect x="752" y="54" width="336" height="168" fill="#1e293b" rx="4"/><text x="762" y="72" fill="#94a3b8" font-size="8" font-weight="700" letter-spacing="1">PANEL C — RELATIONSHIP CONFIDENCE DISTRIBUTION</text><text x="762" y="90" fill="#94a3b8" font-size="9">Based on sampled edge population (2,278 total edges)</text><!-- Bar: High --><rect x="762" y="98" width="180" height="14" fill="#0f766e" rx="2"/><text x="948" y="110" fill="#4ade80" font-size="10" font-weight="700">HIGH ~4%</text><text x="762" y="110" fill="#f1f5f9" font-size="9" font-weight="600">  Explicit / SHA-evidenced</text><!-- Bar: Medium --><rect x="762" y="118" width="280" height="14" fill="#1d4ed8" rx="2"/><text x="1048" y="130" fill="#93c5fd" font-size="10" font-weight="700">MED ~82%</text><text x="762" y="130" fill="#f1f5f9" font-size="9" font-weight="600">  CSV-derived app/data/process</text><!-- Bar: Directional --><rect x="762" y="138" width="220" height="14" fill="#d97706" rx="2"/><text x="988" y="150" fill="#fcd34d" font-size="10" font-weight="700">DIR ~12%</text><text x="762" y="150" fill="#f1f5f9" font-size="9" font-weight="600">  Candidate / platform-field</text><!-- Bar: Unknown --><rect x="762" y="158" width="60" height="14" fill="#b91c1c" rx="2"/><text x="828" y="170" fill="#fca5a5" font-size="10" font-weight="700">GAP ~2%</text><text x="762" y="170" fill="#f1f5f9" font-size="9" font-weight="600">  Owner unconfirmed</text><text x="762" y="192" fill="#64748b" font-size="8">Relationship strength tiers observed: tier1, tier2, tier3, directional, candidate</text><text x="762" y="204" fill="#64748b" font-size="8">All edges: active_source_derived · renderer_rewrite_allowed: false</text><text x="762" y="216" fill="#64748b" font-size="8">Claimable value not established where owner = owner_to_confirm_in_workshop</text><!-- ═══════════════════════════════════════════ PANEL D: Domain Evidence Coverage ═══ --><rect x="12" y="232" width="520" height="290" fill="#1e293b" rx="4"/><text x="22" y="250" fill="#94a3b8" font-size="8" font-weight="700" letter-spacing="1">PANEL D — DOMAIN EVIDENCE COVERAGE BY AIRLINE ARCHITECTURE ZONE</text><!-- Column headers --><text x="22" y="266" fill="#64748b" font-size="8" font-weight="700">DOMAIN</text><text x="240" y="266" fill="#64748b" font-size="8" font-weight="700">EVIDENCE BASIS</text><text x="390" y="266" fill="#64748b" font-size="8" font-weight="700">CONFIDENCE</text><text x="480" y="266" fill="#64748b" font-size="8" font-weight="700">STATUS</text><line x1="22" y1="270" x2="522" y2="270" stroke="#334155" stroke-width="1"/><!-- Row 1 --><rect x="22" y="274" width="8" height="8" fill="#0f766e" rx="1"/><text x="34" y="282" fill="#f1f5f9" font-size="9">PSS / Reservation</text><text x="240" y="282" fill="#94a3b8" font-size="9">04_applications_systems.csv</text><text x="390" y="282" fill="#4ade80" font-size="9" font-weight="700">Medium</text><text x="480" y="282" fill="#4ade80" font-size="9">Indexed</text><!-- Row 2 --><rect x="22" y="290" width="8" height="8" fill="#0f766e" rx="1"/><text x="34" y="298" fill="#f1f5f9" font-size="9">DCS / Departure Control</text><text x="240" y="298" fill="#94a3b8" font-size="9">04_applications_systems.csv · tier1</text><text x="390" y="298" fill="#4ade80" font-size="9" font-weight="700">Medium</text><text x="480" y="298" fill="#4ade80" font-size="9">Indexed</text><!-- Row 3 --><rect x="22" y="306" width="8" height="8" fill="#0f766e" rx="1"/><text x="34" y="314" fill="#f1f5f9" font-size="9">Crew Operations</text><text x="240" y="314" fill="#94a3b8" font-size="9">04_applications_systems.csv · tier3</text><text x="390" y="314" fill="#4ade80" font-size="9" font-weight="700">Medium</text><text x="480" y="314" fill="#4ade80" font-size="9">Indexed</text><!-- Row 4 --><rect x="22" y="322" width="8" height="8" fill="#0f766e" rx="1"/><text x="34" y="330" fill="#f1f5f9" font-size="9">Maintenance / MRO</text><text x="240" y="330" fill="#94a3b8" font-size="9">04_applications_systems.csv · tier1</text><text x="390" y="330" fill="#4ade80" font-size="9" font-weight="700">Medium</text><text x="480" y="330" fill="#4ade80" font-size="9">Indexed</text><!-- Row 5 --><rect x="22" y="338" width="8" height="8" fill="#0f766e" rx="1"/><text x="34" y="346" fill="#f1f5f9" font-size="9">Finance / ERP / Procurement</text><text x="240" y="346" fill="#94a3b8" font-size="9">04_applications_systems.csv · tier1</text><text x="390" y="346" fill="#4ade80" font-size="9" font-weight="700">Medium</text><text x="480" y="346" fill="#4ade80" font-size="9">Indexed</text><!-- Row 6 --><rect x="22" y="354" width="8" height="8" fill="#1d4ed8" rx="1"/><text x="34" y="362" fill="#f1f5f9" font-size="9">Mainframe / z/OS / CICS / DB2 / MQ</text><text x="240" y="362" fill="#94a3b8" font-size="9">05_data_assets_integrations.csv</text><text x="390" y="362" fill="#fcd34d" font-size="9" font-weight="700">Directional</text><text x="480" y="362" fill="#fcd34d" font-size="9">Partial</text><!-- Row 7 --><rect x="22" y="370" width="8" height="8" fill="#1d4ed8" rx="1"/><text x="34" y="378" fill="#f1f5f9" font-size="9">Private Data Centers / Private Cloud</text><text x="240" y="378" fill="#94a3b8" font-size="9">platform_field derivation</text><text x="390" y="378" fill="#fcd34d" font-size="9" font-weight="700">Directional</text><text x="480" y="378" fill="#fcd34d" font-size="9">Partial</text><!-- Row 8 --><rect x="22" y="386" width="8" height="8" fill="#1d4ed8" rx="1"/><text x="34" y="394" fill="#f1f5f9" font-size="9">Hybrid Cloud / AWS Egress</text><text x="240" y="394" fill="#94a3b8" font-size="9">vendor node: Amazon Web Services</text><text x="390" y="394" fill="#fcd34d" font-size="9" font-weight="700">Directional</text><text x="480" y="394" fill="#fcd34d" font-size="9">Partial</text><!-- Row 9 --><rect x="22" y="402" width="8" height="8" fill="#1d4ed8" rx="1"/><text x="34" y="410" fill="#f1f5f9" font-size="9">Integration Fabric (API/MQ/ETL/Batch)</text><text x="240" y="410" fill="#94a3b8" font-size="9">05_data_assets_integrations.csv · 586 flows</text><text x="390" y="410" fill="#fcd34d" font-size="9" font-weight="700">Directional</text><text x="480" y="410" fill="#fcd34d" font-size="9">Partial</text><!-- Row 10 --><rect x="22" y="418" width="8" height="8" fill="#1d4ed8" rx="1"/><text x="34" y="426" fill="#f1f5f9" font-size="9">EDW / Lakehouse / Data Science (SAS)</text><text x="240" y="426" fill="#94a3b8" font-size="9">data_asset nodes: airline data lakehouse</text><text x="390" y="426" fill="#fcd34d" font-size="9" font-weight="700">Directional</text><text x="480" y="426" fill="#fcd34d" font-size="9">Partial</text><!-- Row 11 --><rect x="22" y="434" width="8" height="8" fill="#d97706" rx="1"/><text x="34" y="442" fill="#f1f5f9" font-size="9">Power BI / Tableau / Portals</text><text x="240" y="442" fill="#94a3b8" font-size="9">analytics_platform function node</text><text x="390" y="442" fill="#fcd34d" font-size="9" font-weight="700">Directional</text><text x="480" y="442" fill="#fcd34d" font-size="9">Candidate</text><!-- Row 12 --><rect x="22" y="450" width="8" height="8" fill="#d97706" rx="1"/><text x="34" y="458" fill="#f1f5f9" font-size="9">AI Agents (gated / audited APIs)</text><text x="240" y="458" fill="#94a3b8" font-size="9">ai_candidate nodes · SHA-EVID-07220</text><text x="390" y="458" fill="#fcd34d" font-size="9" font-weight="700">Candidate</text><text x="480" y="458" fill="#fcd34d" font-size="9">Candidate</text><!-- Row 13 --><rect x="22" y="466" width="8" height="8" fill="#b91c1c" rx="1"/><text x="34" y="474" fill="#f1f5f9" font-size="9">Digital Channels (airline.com / mobile)</text><text x="240" y="474" fill="#94a3b8" font-size="9">Not yet evidenced in loaded graph</text><text x="390" y="474" fill="#fca5a5" font-size="9" font-weight="700">Unknown</text><text x="480" y="474" fill="#fca5a5" font-size="9">Gap</text><!-- Row 14 --><rect x="22" y="482" width="8" height="8" fill="#b91c1c" rx="1"/><text x="34" y="490" fill="#f1f5f9" font-size="9">Revenue Accounting (claimable value)</text><text x="240" y="490" fill="#94a3b8" font-size="9">owner_to_confirm_in_workshop</text><text x="390" y="490" fill="#fca5a5" font-size="9" font-weight="700">Unknown</text><text x="480" y="490" fill="#fca5a5" font-size="9">Gap</text><!-- Row 15 --><rect x="22" y="498" width="8" height="8" fill="#b91c1c" rx="1"/><text x="34" y="506" fill="#f1f5f9" font-size="9">Airport Turnaround (metric linkage)</text><text x="240" y="506" fill="#94a3b8" font-size="9">metric node present; system link unconfirmed</text><text x="390" y="506" fill="#fca5a5" font-size="9" font-weight="700">Unknown</text><text x="480" y="506" fill="#fca5a5" font-size="9">Gap</text><!-- ═══════════════════════════════════════════ PANEL E: Authority Gate Map ═══ --><rect x="542" y="232" width="546" height="290" fill="#1e293b" rx="4"/><text x="552" y="250" fill="#94a3b8" font-size="8" font-weight="700" letter-spacing="1">PANEL E — DECISION AND FINANCE AUTHORITY GATE MAP</text><!-- Gate flow: left to right --><text x="552" y="268" fill="#64748b" font-size="8">Recommendation flow must clear each gate before advancing. Blocked gates halt promotion.</text><!-- Gate 1: Evidence Sufficiency --><rect x="552" y="278" width="120" height="52" fill="#0f172a" rx="3" stroke="#0f766e" stroke-width="1.5"/><text x="612" y="294" fill="#4ade80" font-size="9" font-weight="700" text-anchor="middle">GATE 1</text><text x="612" y="307" fill="#f1f5f9" font-size="9" text-anchor="middle">Evidence</text><text x="612" y="319" fill="#f1f5f9" font-size="9" text-anchor="middle">Sufficiency</text><text x="612" y="328" fill="#94a3b8" font-size="8" text-anchor="middle">Tier 1 or Tier 2 req.</text><line x1="672" y1="304" x2="700" y2="304" stroke="#475569" stroke-width="1.5" marker-end="url(#arr)"/><!-- Gate 2: Relationship Confidence --><rect x="700" y="278" width="120" height="52" fill="#0f172a" rx="3" stroke="#1d4ed8" stroke-width="1.5"/><text x="760" y="294" fill="#93c5fd" font-size="9" font-weight="700" text-anchor="middle">GATE 2</text><text x="760" y="307" fill="#f1f5f9" font-size="9" text-anchor="middle">Relationship</text><text x="760" y="319" fill="#f1f5f9" font-size="9" text-anchor="middle">Confidence</text><text x="760" y="328" fill="#94a3b8" font-size="8" text-anchor="middle">Medium+ required</text><line x1="820" y1="304" x2="848" y2="304" stroke="#475569" stroke-width="1.5" marker-end="url(#arr)"/><!-- Gate 3: Architecture Authority --><rect x="848" y="278" width="120" height="52" fill="#0f172a" rx="3" stroke="#7c3aed" stroke-width="1.5"/><text x="908" y="294" fill="#c4b5fd" font-size="9" font-weight="700" text-anchor="middle">GATE 3</text><text x="908" y="307" fill="#f1f5f9" font-size="9" text-anchor="middle">Architecture</text><text x="908" y="319" fill="#f1f5f9" font-size="9" text-anchor="middle">Authority</text><text x="908" y="328" fill="#94a3b8" font-size="8" text-anchor="middle">Advisory sign-off</text><!-- Gate 4: Finance Authority (below) --><line x1="908" y1="330" x2="908" y2="358" stroke="#475569" stroke-width="1.5" marker-end="url(#arr)"/><rect x="848" y="358" width="120" height="52" fill="#0f172a" rx="3" stroke="#d97706" stroke-width="1.5"/><text x="908" y="374" fill="#fcd34d" font-size="9" font-weight="700" text-anchor="middle">GATE 4</text><text x="908" y="387" fill="#f1f5f9" font-size="9" text-anchor="middle">Finance</text><text x="908" y="399" fill="#f1f5f9" font-size="9" text-anchor="middle">Authority</text><text x="908" y="408" fill="#94a3b8" font-size="8" text-anchor="middle">Budget alignment req.</text><!-- Gate 5: AI Action Gate --><line x1="848" y1="384" x2="820" y2="384" stroke="#475569" stroke-width="1.5" marker-end="url(#arr)"/><rect x="700" y="358" width="120" height="52" fill="#0f172a" rx="3" stroke="#b91c1c" stroke-width="1.5"/><text x="760" y="374" fill="#fca5a5" font-size="9" font-weight="700" text-anchor="middle">GATE 5</text><text x="760" y="387" fill="#f1f5f9" font-size="9" text-anchor="middle">AI Action</text><text x="760" y="399" fill="#f1f5f9" font-size="9" text-anchor="middle">Gate</text><text x="760" y="408" fill="#94a3b8" font-size="8" text-anchor="middle">Audited API only</text><!-- Approved output --><line x1="700" y1="384" x2="672" y2="384" stroke="#0f766e" stroke-width="1.5" marker-end="url(#arr-teal)"/><rect x="552" y="358" width="120" height="52" fill="#052e16" rx="3" stroke="#0f766e" stroke-width="2"/><text x="612" y="374" fill="#4ade80" font-size="9" font-weight="700" text-anchor="middle">APPROVED</text><text x="612" y="387" fill="#f1f5f9" font-size="9" text-anchor="middle">Recommendation</text><text x="612" y="399" fill="#f1f5f9" font-size="9" text-anchor="middle">Promoted</text><text x="612" y="408" fill="#94a3b8" font-size="8" text-anchor="middle">All gates cleared</text><!-- Blocked path label --><text x="552" y="432" fill="#fca5a5" font-size="9" font-weight="700">BLOCKED CONDITIONS (halt promotion):</text><text x="552" y="446" fill="#94a3b8" font-size="9">· Evidence tier = Gap / owner_to_confirm_in_workshop</text><text x="552" y="459" fill="#94a3b8" font-size="9">· Relationship strength = candidate only (no corroborating tier)</text><text x="552" y="472" fill="#94a3b8" font-size="9">· Claimable value not established → report as unknown, not $0</text><text x="552" y="485" fill="#94a3b8" font-size="9">· AI agent action without audited API gate clearance</text><text x="552" y="498" fill="#94a3b8" font-size="9">· Finance authority not aligned to FY2027 budget ($2.35B envelope)</text><text x="552" y="511" fill="#94a3b8" font-size="9">· Renderer rewrite attempted → rejected by validator</text><!-- ═══════════════════════════════════════════ PANEL F: Finance Authority Context ═══ --><rect x="12" y="532" width="520" height="110" fill="#1e293b" rx="4"/><text x="22" y="550" fill="#94a3b8" font-size="8" font-weight="700" letter-spacing="1">PANEL F — FINANCE AUTHORITY CONTEXT</text><text x="22" y="566" fill="#fcd34d" font-size="10" font-weight="700">FY2027 Technology Budget</text><text x="280" y="566" fill="#f1f5f9" font-size="10" font-weight="700">$2.35B</text><text x="22" y="582" fill="#94a3b8" font-size="9">FY2026 Actual Technology Spend</text><text x="280" y="582" fill="#f1f5f9" font-size="9">$2.18B</text><text x="22" y="596" fill="#94a3b8" font-size="9">Annual Committed Base</text><text x="280" y="596" fill="#f1f5f9" font-size="9">$1.48B  (63% of FY2027 envelope pre-committed)</text><text x="22" y="610" fill="#94a3b8" font-size="9">Estimated AI Use Cost</text><text x="280" y="610" fill="#f1f5f9" font-size="9">$170.2M  (directional; requires finance authority confirmation)</text><text x="22" y="624" fill="#94a3b8" font-size="9">Annual Value Contracts Indexed</text><text x="280" y="624" fill="#f1f5f9" font-size="9">119  (claimable value: unknown / not established where owner unconfirmed)</text><text x="22" y="638" fill="#64748b" font-size="8">Finance gate requires budget alignment before any recommendation referencing spend is promoted to advisory output.</text><!-- ═══════════════════════════════════════════ PANEL G: Gap Register ═══ --><rect x="542" y="532" width="546" height="110" fill="#1e293b" rx="4"/><text x="552" y="550" fill="#94a3b8" font-size="8" font-weight="700" letter-spacing="1">PANEL G — EXPLICIT EVIDENCE GAPS (DO NOT PROMOTE UNTIL RESOLVED)</text><rect x="552" y="558" width="8" height="8" fill="#b91c1c" rx="1"/><text x="566" y="566" fill="#fca5a5" font-size="9" font-weight="700">GAP-01</text><text x="610" y="566" fill="#f1f5f9" font-size="9">Digital channels (airline.com, mobile, airport kiosk) — no system nodes evidenced in loaded graph</text><rect x="552" y="572" width="8" height="8" fill="#b91c1c" rx="1"/><text x="566" y="580" fill="#fca5a5" font-size="9" font-weight="700">GAP-02</text><text x="610" y="580" fill="#f1f5f9" font-size="9">Claimable value for 119 contracts — owner_to_confirm_in_workshop; value not established, not $0</text><rect x="552" y="586" width="8" height="8" fill="#b91c1c" rx="1"/><text x="566" y="594" fill="#fca5a5" font-size="9" font-weight="700">GAP-03</text><text x="610" y="594" fill="#f1f5f9" font-size="9">Mainframe z/OS / CICS / DB2 topology — directional only; no confirmed system-level evidence rows</text><rect x="552" y="600" width="8" height="8" fill="#b91c1c" rx="1"/><text x="566" y="608" fill="#fca5a5" font-size="9" font-weight="700">GAP-04</text><text x="610" y="608" fill="#f1f5f9" font-size="9">Airport turnaround metric (b32a70c387fed9de) — metric node present; system linkage unconfirmed</text><rect x="552" y="614" width="8" height="8" fill="#b91c1c" rx="1"/><text x="566" y="622" fill="#fca5a5" font-size="9" font-weight="700">GAP-05</text><text x="610" y="622" fill="#f1f5f9" font-size="9">AI agent audit trail — candidate edges only; no confirmed audited-API gate evidence in loaded graph</text><text x="552" y="636" fill="#64748b" font-size="8">Gaps must be resolved via workshop confirmation or additional CSV evidence before advisory promotion. Validator will reject unsupported claims.</text><!-- ═══════════════════════════════════════════ LEGEND ═══ --><rect x="12" y="652" width="1076" height="44" fill="#0f172a" rx="3"/><text x="22" y="666" fill="#64748b" font-size="8" font-weight="700" letter-spacing="1">LEGEND</text><rect x="22" y="672" width="10" height="10" fill="#0f766e" rx="1"/><text x="36" y="681" fill="#94a3b8" font-size="8">Confirmed / Tier 1–2 evidence</text><rect x="180" y="672" width="10" height="10" fill="#1d4ed8" rx="1"/><text x="194" y="681" fill="#94a3b8" font-size="8">Directional / Tier 3 (medium, unconfirmed)</text><rect x="400" y="672" width="10" height="10" fill="#d97706" rx="1"/><text x="414" y="681" fill="#94a3b8" font-size="8">Candidate / process-derived</text><rect x="570" y="672" width="10" height="10" fill="#b91c1c" rx="1"/><text x="584" y="681" fill="#94a3b8" font-size="8">Gap / unknown — do not promote</text><rect x="740" y="672" width="10" height="10" fill="#7c3aed" rx="1"/><text x="754" y="681" fill="#94a3b8" font-size="8">Authority gate</text><text x="860" y="681" fill="#64748b" font-size="8">Boundary: synthetic_demo_airline_planning_grade · Not a real airline production dataset</text><!-- Footer --><text x="18" y="762" fill="#475569" font-size="8">SkyHarbor Global · posture-evidence-authority · planning_grade · source: home_evidence_contract, relationship_edges, architecture_advisory_result</text><text x="1082" y="762" fill="#475569" font-size="8" text-anchor="end">Nodes: 2,203 · Edges: 2,278 · no_post_claude_mutation: true</text></svg>